<svg xmlns="http://www.w3.org/2000/svg" viewBox="0 0 109.26 45.74" fill="#d0d0d3"><path d="M18.58,7.26a1.43,1.43,0,0,1,.86-.3,1.07,1.07,0,0,1,.92.5l1,1.17a1.62,1.62,0,0,1,.36.86,1.26,1.26,0,0,1-.56.92L4.26,23.1,21.12,35.79a1.26,1.26,0,0,1,.56.92,1.62,1.62,0,0,1-.36.86l-1,1.17a1.14,1.14,0,0,1-1,.5,1.43,1.43,0,0,1-.86-.3L2.08,26.55A5.67,5.67,0,0,1,.56,24.93a3.27,3.27,0,0,1,0-3.66,5.67,5.67,0,0,1,1.52-1.62Z"/><path d="M53.1,34.47a1.25,1.25,0,0,1-.38.94,1.24,1.24,0,0,1-.94.38H50.06a1.18,1.18,0,0,1-.89-.35,1.55,1.55,0,0,1-.38-1L47.88,8.38,42.24,19.65a1.47,1.47,0,0,1-1.47.91H39.35a1.48,1.48,0,0,1-1.48-.91L32.24,8.38l-.92,26.09a1.55,1.55,0,0,1-.38,1,1.16,1.16,0,0,1-.88.35H28.33a1.25,1.25,0,0,1-.94-.38,1.29,1.29,0,0,1-.38-.94l1-33.2C28,.42,28.48,0,29.4,0h.81a3,3,0,0,1,3,1.83l6.86,13.71L46.91,1.83a3.05,3.05,0,0,1,3-1.83h.81c.91,0,1.37.42,1.37,1.27Z"/><path d="M77.73,1.17a1.16,1.16,0,0,1,1-.71,1.65,1.65,0,0,1,.66.15L81,1.42a1.18,1.18,0,0,1,.71,1,2,2,0,0,1-.15.66L60.62,45a1.17,1.17,0,0,1-1,.71,2,2,0,0,1-.66-.15l-1.62-.81a1.17,1.17,0,0,1-.71-1,2,2,0,0,1,.15-.66Z"/><path d="M108.7,21.27a3.27,3.27,0,0,1,0,3.66,5.71,5.71,0,0,1-1.53,1.62L90.72,38.94a1.27,1.27,0,0,1-.86.3,1.12,1.12,0,0,1-1-.5l-1-1.17a1.67,1.67,0,0,1-.35-.86,1.23,1.23,0,0,1,.56-.92L105,23.1,88.14,10.41a1.23,1.23,0,0,1-.56-.92,1.67,1.67,0,0,1,.35-.86l1-1.17a1.05,1.05,0,0,1,.91-.5,1.27,1.27,0,0,1,.86.3l16.5,12.39A5.71,5.71,0,0,1,108.7,21.27Z"/></svg>