<svg xmlns="http://www.w3.org/2000/svg" version="1.1" xmlns:xlink="http://www.w3.org/1999/xlink" xmlns:svgjs="http://svgjs.com/svgjs" width="1000" height="1000"><rect width="1000" height="1000" rx="200" ry="200" fill="#555555"></rect><g transform="matrix(8.39454354669465,0,0,8.39454354669465,100.00002309525502,308.2196167885379)"><svg xmlns="http://www.w3.org/2000/svg" version="1.1" xmlns:xlink="http://www.w3.org/1999/xlink" xmlns:svgjs="http://svgjs.com/svgjs" width="95.3" height="45.7"><svg version="1.1" id="Layer_1" xmlns="http://www.w3.org/2000/svg" xmlns:xlink="http://www.w3.org/1999/xlink" x="0px" y="0px" viewBox="0 0 95.3 45.7" style="enable-background:new 0 0 95.3 45.7;" xml:space="preserve">
<style type="text/css">
	.st0{fill:#D0D0D3;}
</style>
<path class="st0" d="M18.6,7.3C18.8,7.1,19.1,7,19.4,7c0.4,0,0.7,0.2,0.9,0.5l1,1.2c0.2,0.2,0.3,0.5,0.4,0.9c0,0.4-0.2,0.7-0.6,0.9
	L4.3,23.1l16.9,12.7c0.3,0.2,0.5,0.5,0.6,0.9c0,0.3-0.2,0.6-0.4,0.9l-1,1.2c-0.2,0.3-0.6,0.5-1,0.5c-0.3,0-0.6-0.1-0.9-0.3L2.1,26.6
	c-0.6-0.4-1.1-1-1.5-1.6c-0.7-1.1-0.7-2.6,0-3.7c0.4-0.6,0.9-1.2,1.5-1.6L18.6,7.3z"></path>
<path class="st0" d="M50.1,34.5c0,0.4-0.1,0.7-0.4,0.9c-0.2,0.3-0.6,0.4-0.9,0.4h-1.7c-0.3,0-0.7-0.1-0.9-0.3
	c-0.2-0.3-0.4-0.6-0.4-1L44.9,8.4l-5.6,11.3c-0.2,0.6-0.8,1-1.5,0.9h-1.4c-0.6,0-1.2-0.3-1.5-0.9L29.2,8.4l-0.9,26.1
	c0,0.4-0.1,0.7-0.4,1c-0.2,0.2-0.6,0.4-0.9,0.3h-1.7c-0.4,0-0.7-0.1-0.9-0.4c-0.2-0.2-0.4-0.6-0.4-0.9l1-33.2C25,0.4,25.5,0,26.4,0
	h0.8c1.3-0.1,2.5,0.6,3,1.8l6.9,13.7l6.8-13.7c0.5-1.2,1.7-1.9,3-1.8h0.8c0.9,0,1.4,0.4,1.4,1.3L50.1,34.5z"></path>
<path class="st0" d="M69.7,1.2c0.2-0.4,0.6-0.7,1-0.7c0.2,0,0.5,0.1,0.7,0.2L73,1.4c0.4,0.2,0.7,0.6,0.7,1c0,0.2-0.1,0.5-0.2,0.7
	L52.6,45c-0.2,0.4-0.6,0.7-1,0.7c-0.2,0-0.5-0.1-0.7-0.2l-1.6-0.8c-0.4-0.2-0.7-0.6-0.7-1c0-0.2,0.1-0.5,0.2-0.7L69.7,1.2z"></path>
<path class="st0" d="M94.7,21.3c0.7,1.1,0.7,2.6,0,3.7c-0.4,0.6-0.9,1.2-1.5,1.6L76.7,38.9c-0.2,0.2-0.5,0.3-0.9,0.3
	c-0.4,0-0.8-0.2-1-0.5l-1-1.2c-0.2-0.2-0.3-0.5-0.3-0.9c0-0.4,0.2-0.7,0.6-0.9L91,23.1L74.1,10.4c-0.3-0.2-0.5-0.5-0.6-0.9
	c0-0.3,0.2-0.6,0.3-0.9l1-1.2C75.1,7.2,75.5,7,75.8,7c0.3,0,0.6,0.1,0.9,0.3l16.5,12.4C93.8,20.1,94.3,20.6,94.7,21.3z"></path>
</svg></svg></g></svg>