<svg xmlns="http://www.w3.org/2000/svg" viewBox="0 0 218.97 46.88"><g id="Capa_2" data-name="Capa 2"><g id="Capa_1-2" data-name="Capa 1"><path d="M19,7.44a1.46,1.46,0,0,1,.89-.31,1.11,1.11,0,0,1,.94.52l1,1.2a1.59,1.59,0,0,1,.37.88,1.3,1.3,0,0,1-.57.94l-17.28,13,17.28,13a1.3,1.3,0,0,1,.57.94,1.59,1.59,0,0,1-.37.88l-1,1.2a1.16,1.16,0,0,1-1,.52,1.44,1.44,0,0,1-.89-.31L2.13,27.21A5.82,5.82,0,0,1,.57,25.55a3.37,3.37,0,0,1,0-3.75,5.82,5.82,0,0,1,1.56-1.66Z"/><path d="M52.62,35.33a1.3,1.3,0,0,1-.39,1,1.33,1.33,0,0,1-1,.39H49.49a1.2,1.2,0,0,1-.91-.36,1.65,1.65,0,0,1-.39-1L47.26,8.59,41.48,20.14a1.51,1.51,0,0,1-1.51.93H38.51a1.5,1.5,0,0,1-1.5-.93L31.23,8.59l-.94,26.74a1.54,1.54,0,0,1-.39,1,1.18,1.18,0,0,1-.91.36H27.22a1.33,1.33,0,0,1-1.35-1.35l1-34c0-.87.47-1.3,1.41-1.3h.83a3.12,3.12,0,0,1,3.07,1.87l7,14.05,7-14A3.12,3.12,0,0,1,49.34,0h.83c.94,0,1.4.43,1.4,1.3Z"/><path d="M75.57,36.58a71.63,71.63,0,0,1-8.38.62,15.3,15.3,0,0,1-5.85-1,8.42,8.42,0,0,1-3.72-2.73,6.25,6.25,0,0,1,0-7.5,8.51,8.51,0,0,1,3.75-2.75,15.38,15.38,0,0,1,6-1H72.4V20.08q0-3.27-1.72-4.65a8,8,0,0,0-5.1-1.38,24,24,0,0,0-4.73.52,1.61,1.61,0,0,1-.42,0,1,1,0,0,1-1.14-1l-.16-1.4v-.31a1.28,1.28,0,0,1,.23-.81,1.28,1.28,0,0,1,.76-.39A32.93,32.93,0,0,1,66.57,10q5,0,7.65,2.4t2.6,7.64V35.17A1.27,1.27,0,0,1,75.57,36.58Zm-13-9.37a3,3,0,0,0-1.69,2.55,3,3,0,0,0,1.71,2.53,9.94,9.94,0,0,0,5,1c1,0,2.6-.1,4.89-.31V26.17H67.35A9.24,9.24,0,0,0,62.54,27.21Z"/><path d="M86.09,10.77a59.3,59.3,0,0,1,8.85-.62c3.88,0,6.69.8,8.43,2.42s2.6,4.31,2.6,8.09V35.38a1.15,1.15,0,0,1-1.3,1.3h-1.82a1.15,1.15,0,0,1-1.3-1.3V20.66c0-2.43-.51-4.13-1.51-5.1s-2.71-1.46-5.1-1.46c-1.67,0-3.54.07-5.62.21V35.38a1.15,1.15,0,0,1-1.3,1.3H86.2a1.15,1.15,0,0,1-1.3-1.3V12.18A1.32,1.32,0,0,1,86.09,10.77Z"/><path d="M132.88,36.58a59.2,59.2,0,0,1-8.85.62c-3.88,0-6.69-.8-8.43-2.42s-2.6-4.31-2.6-8.09V12a1.15,1.15,0,0,1,1.3-1.3h1.82a1.15,1.15,0,0,1,1.31,1.3V26.69q0,3.64,1.5,5.1t5.1,1.46c1.67,0,3.54-.07,5.62-.21V12a1.15,1.15,0,0,1,1.3-1.3h1.83a1.15,1.15,0,0,1,1.3,1.3v23.2A1.33,1.33,0,0,1,132.88,36.58Z"/><path d="M188.47,1.2a1.21,1.21,0,0,1,1-.73,1.82,1.82,0,0,1,.68.15l1.66.84a1.19,1.19,0,0,1,.73,1,2.05,2.05,0,0,1-.15.67l-21.49,43a1.21,1.21,0,0,1-1.05.73,2.11,2.11,0,0,1-.67-.15l-1.67-.84a1.21,1.21,0,0,1-.73-1,2.11,2.11,0,0,1,.16-.67Z"/><path d="M218.4,21.8a3.37,3.37,0,0,1,0,3.75,5.82,5.82,0,0,1-1.56,1.66L200,39.91a1.3,1.3,0,0,1-.88.31,1.13,1.13,0,0,1-1-.52l-1-1.2a1.67,1.67,0,0,1-.37-.88,1.28,1.28,0,0,1,.58-.94l17.27-13-17.27-13a1.28,1.28,0,0,1-.58-.94,1.67,1.67,0,0,1,.37-.88l1-1.2a1.08,1.08,0,0,1,.93-.52,1.32,1.32,0,0,1,.89.31l16.91,12.7A5.82,5.82,0,0,1,218.4,21.8Z"/></g></g></svg>